<svg xmlns="http://www.w3.org/2000/svg" width="64" height="64" viewBox="0 0 64 64" fill="none">
  <circle cx="32" cy="32" r="28" fill="url(#paint0_linear)" />
  <path d="M32 8C18.7452 8 8 18.7452 8 32C8 45.2548 18.7452 56 32 56C45.2548 56 56 45.2548 56 32C56 18.7452 45.2548 8 32 8ZM44.2304 27.0261L32.3572 40.6522C32.1078 40.931 31.7826 41.0783 31.443 41.0783C31.1035 41.0783 30.7826 40.931 30.5289 40.6522L19.7696 28.6783C19.2348 28.0783 19.2348 27.1218 19.7739 26.5217C20.313 25.9217 21.1722 25.9217 21.7113 26.5217L31.443 37.3565L42.2887 24.9739C42.8278 24.3739 43.687 24.3739 44.2261 24.9739C44.7652 25.574 44.7652 26.5261 44.2304 27.0261Z" fill="white"/>
  <defs>
    <linearGradient id="paint0_linear" x1="12" y1="12" x2="52" y2="52" gradientUnits="userSpaceOnUse">
      <stop stop-color="#10B981"/>
      <stop offset="1" stop-color="#047857"/>
    </linearGradient>
  </defs>
</svg> 