<?xml version="1.0" standalone="no"?>
<!DOCTYPE svg PUBLIC "-//W3C//DTD SVG 20010904//EN"
 "http://www.w3.org/TR/2001/REC-SVG-20010904/DTD/svg10.dtd">
<svg version="1.0" xmlns="http://www.w3.org/2000/svg"
 width="12pt" height="12pt" viewBox="0 0 12.000000 12.000000"
 preserveAspectRatio="xMidYMid meet">

<g transform="translate(0.000000,440.000000) scale(0.100000,-0.100000)"
fill="#000000" stroke="none">
<path d="M2112 4389 c-243 -32 -493 -201 -600 -406 -19 -38 -31 -51 -42 -47
-118 46 -331 53 -465 15 -286 -79 -481 -275 -556 -556 -31 -116 -31 -291 0
-400 12 -44 18 -81 13 -83 -5 -1 -35 -18 -66 -37 -176 -106 -299 -270 -361
-480 -94 -317 61 -690 361 -870 31 -19 61 -36 66 -37 5 -2 -1 -39 -13 -83 -18
-64 -23 -104 -22 -200 2 -371 224 -661 578 -756 110 -29 299 -30 403 -2 l72
19 45 -72 c113 -180 269 -297 482 -360 166 -49 338 -33 510 46 169 79 285 184
376 342 l27 46 62 -20 c79 -26 259 -35 354 -19 316 56 579 319 635 635 16 95
7 275 -19 353 l-20 62 73 46 c181 113 298 268 361 482 36 124 36 262 0 386
-63 213 -180 369 -360 482 l-72 45 19 72 c29 108 29 296 -2 403 -80 287 -269
476 -556 557 -108 30 -306 30 -408 0 l-68 -19 -26 46 c-39 67 -104 150 -154
196 -170 157 -421 242 -627 214z m258 -26 c91 -21 222 -84 303 -146 76 -57
174 -172 213 -249 19 -38 29 -48 42 -43 118 45 336 53 467 16 281 -79 471
-269 546 -547 36 -133 28 -350 -16 -466 -5 -13 5 -23 43 -42 126 -64 255 -198
327 -341 116 -231 116 -459 0 -690 -72 -143 -201 -277 -327 -341 -38 -19 -48
-29 -43 -42 55 -139 60 -362 10 -510 -80 -238 -259 -416 -500 -498 -114 -38
-296 -45 -410 -16 -44 11 -88 23 -97 27 -13 5 -23 -5 -42 -43 -39 -77 -137
-192 -213 -249 -141 -107 -311 -166 -473 -165 -278 2 -565 175 -686 415 -19
37 -29 47 -42 42 -115 -44 -332 -52 -464 -17 -277 75 -475 272 -550 550 -29
108 -29 287 1 396 11 44 21 80 21 81 0 1 -30 20 -67 41 -82 48 -202 159 -255
237 -186 274 -186 600 0 874 53 78 173 189 255 237 37 21 67 40 67 41 0 1 -10
37 -21 81 -30 109 -30 288 -1 396 75 277 271 474 548 549 134 37 349 29 465
-16 12 -4 26 11 55 62 47 81 158 202 234 253 195 132 397 173 610 123z"/>
<path d="M1584 3152 c-101 -35 -113 -50 -395 -515 -525 -864 -509 -836 -509
-875 0 -21 4 -42 8 -49 19 -30 70 -33 578 -33 336 0 522 -4 535 -10 25 -14 25
-59 -1 -110 -27 -52 -35 -120 -21 -161 18 -53 402 -669 426 -685 28 -18 60 -7
96 32 49 54 991 1637 996 1674 4 26 0 42 -15 60 l-20 25 -377 3 c-420 3 -441
1 -525 -62 -36 -27 -72 -78 -188 -269 -148 -243 -187 -292 -266 -328 -104 -47
-188 2 -145 84 50 94 598 989 623 1015 68 74 191 106 231 62 27 -30 14 -76
-49 -183 -63 -104 -71 -150 -35 -183 20 -18 43 -19 387 -22 235 -2 384 1 418
8 100 21 146 65 260 250 56 90 105 177 108 192 8 42 -8 74 -45 87 -23 8 -316
11 -1028 11 -925 -1 -1000 -2 -1047 -18z"/>
</g>
</svg>
